:SAMPLES-PER-SECOND 30
:FULLY-SPECIFIED
:DEGREES
30
root  10.90777765 40.12710992 -6.767644657 -7.628540039 -50.90330124 7.633890152
lfemur  -22.84830093 6.493339539 -13.18579674
ltibia  -1.491570742e-006 -8.364404493e-007 49.45030212
lfoot  5.521815751e-007 -7.334063053 8.489991188
ltoes  -4.250644065 -19.5611806 -102.515957
rfemur  -14.60680008 17.5909996 1.71156013
rtibia  -8.727266732e-007 2.533748784e-007 51.83460236
rfoot  -2.316020982e-006 -20.19460106 -4.463669777
rtoes  5.373923086 19.29304026 -105.8922705
lowerback  11.04870033 0.9954850078 0.8999890685
upperback  3.368360043 1.420950055 2.25703001
thorax  -2.715019941 0.6703540087 1.650200009
rclavicle  0 -9.442270133e-015 7.951389973e-016
rhumerus  -6.696969986 24.81450081 -73.85790253
rradius  -7.782817793e-012 0.001642658608 130.7890015
rwrist  0.002739921212 0.003270594636 -10.77820015
rthumb  -92.93752616 -24.25625642 -97.11982154
rhand  -7.920061211e-032 -33.2840004 9.303460121
rfingers  -90 -7.125020027 -90
lclavicle  0 -9.442270133e-015 7.951389973e-016
lhumerus  -14.86240005 -1.873890042 75.57019806
lradius  1.032090038e-011 -0.003757435596 137.8769989
lwrist  1.816137865e-011 1.409039812e-011 11.21539974
lthumb  89.89689403 5.08795885 91.16245106
lhand  -1.496451383e-031 -27.76390076 20.11240005
lfingers  90 7.125020027 -90
lowerneck  -6.149390221 6.623630047 -0.4059810042
upperneck  8.218090057 8.891690254 0.2294968069
head  3.725330114 4.392640114 0.5989379287
31
root  10.94175549 39.89711071 -6.715822595 -7.812339783 -50.79510117 7.674990177
lfemur  -22.45269394 5.318840027 -12.7266016
ltibia  -1.491570742e-006 -8.364404493e-007 48.8291893
lfoot  5.521815751e-007 -8.404714584 7.042810917
ltoes  -4.250644065 -19.5611806 -102.515957
rfemur  -14.55439949 17.34119987 1.520509601
rtibia  -8.727266732e-007 2.533748784e-007 53.28269196
rfoot  -2.316020982e-006 -19.74389458 -5.774508476
rtoes  5.373923086 19.29304026 -105.8922705
lowerback  10.88440037 0.9561620355 0.8950560093
upperback  3.308099985 1.36856997 2.261739969
thorax  -2.68659997 0.6454489827 1.666470051
rclavicle  0 -9.442270133e-015 7.951389973e-016
rhumerus  -5.621951103 24.17670059 -73.31539917
rradius  -7.782816058e-012 0.001642658608 131.9120026
rwrist  0.002739921212 0.003270594636 -11.72369957
rthumb  -92.93752616 -24.25625642 -97.11982154
rhand  -7.920061211e-032 -33.2840004 9.303460121
rfingers  -90 -7.125020027 -90
lclavicle  0 -9.442270133e-015 7.951389973e-016
lhumerus  -13.36499977 -2.281090021 74.42669678
lradius  1.032090038e-011 -0.003757435596 138.3370056
lwrist  1.816137865e-011 1.409039812e-011 12.09080029
lthumb  89.89689403 5.08795885 91.16245106
lhand  -1.496451383e-031 -27.76390076 20.11240005
lfingers  90 7.125020027 -90
lowerneck  -6.037310123 6.580860138 -0.4508079886
upperneck  8.468509674 8.806420326 0.575872004
head  3.77203989 4.362140179 0.7161709666
32
root  10.97504473 39.64444558 -6.664555467 -8.034399986 -50.73210144 7.698050022
lfemur  -22.01789665 4.084690094 -12.20560169
ltibia  -1.491570742e-006 -8.364404493e-007 48.70779419
lfoot  5.521815751e-007 -9.586675644 5.613900661
ltoes  -4.250644065 -19.5611806 -102.515957
rfemur  -14.46909714 17.22159958 1.342699051
rtibia  -8.727266732e-007 2.533748784e-007 54.69759369
rfoot  -2.316020982e-006 -19.08799553 -6.412419796
rtoes  5.373923086 19.29304026 -105.8922705
lowerback  10.77620029 0.9653260112 0.9500819445
upperback  3.243720055 1.386749983 2.222719908
thorax  -2.692320108 0.6555839777 1.593479991
rclavicle  0 -9.442270133e-015 7.951389973e-016
rhumerus  -4.623580456 23.41869926 -72.90090179
rradius  -7.782816926e-012 0.001642658608 133.0800018
rwrist  0.002739921212 0.003270594636 -12.80609989
rthumb  -92.93752616 -24.25625642 -97.11982154
rhand  -7.920061211e-032 -33.2840004 9.303460121
rfingers  -90 -7.125020027 -90
lclavicle  0 -9.442270133e-015 7.951389973e-016
lhumerus  -11.73729992 -2.68378973 73.18810272
lradius  1.032090125e-011 -0.003757435596 138.6889954
lwrist  1.816137865e-011 1.409039812e-011 12.94089985
lthumb  89.89689403 5.08795885 91.16245106
lhand  -1.496451383e-031 -27.76390076 20.11240005
lfingers  90 7.125020027 -90
lowerneck  -5.800159931 6.475200176 -0.4659759998
upperneck  8.564900398 8.632650375 0.9100227952
head  3.743309975 4.289949894 0.8104000092
33
root  11.00484443 39.39688975 -6.60375535 -8.607370377 -50.63190079 7.999450207
lfemur  -21.48509598 2.991300106 -11.95830154
ltibia  -1.491570742e-006 -8.364404493e-007 48.98679352
lfoot  5.521815751e-007 -10.61049652 4.224900723
ltoes  -4.250644065 -19.5611806 -102.515957
rfemur  -14.13929462 17.27669907 1.00439775
rtibia  -8.727266732e-007 2.533748784e-007 55.98069
rfoot  -2.316020982e-006 -18.6363945 -5.954189301
rtoes  5.373923086 19.29304026 -105.8922705
lowerback  10.74979973 0.9484789371 0.8116300702
upperback  3.20739007 1.349720001 2.156379938
thorax  -2.71649003 0.6383330226 1.607339978
rclavicle  0 -9.442270133e-015 7.951389973e-016
rhumerus  -3.698679209 22.73999977 -72.55419922
rradius  -7.782817793e-012 0.001642658608 134.1849976
rwrist  0.002739921212 0.003270594636 -13.85750008
rthumb  -92.93752616 -24.25625642 -97.11982154
rhand  -7.920061211e-032 -33.2840004 9.303460121
rfingers  -90 -7.125020027 -90
lclavicle  0 -9.442270133e-015 7.951389973e-016
lhumerus  -10.1619997 -2.856230021 72.00319672
lradius  1.032090125e-011 -0.003757435596 138.9620056
lwrist  1.816137865e-011 1.409039812e-011 13.76659966
lthumb  89.89689403 5.08795885 91.16245106
lhand  -1.496451383e-031 -27.76390076 20.11240005
lfingers  90 7.125020027 -90
lowerneck  -5.502910137 6.44949007 -0.6095719934
upperneck  8.601849556 8.571260452 1.311689973
head  3.672179937 4.272459984 0.9488049746
